<mxfile host="app.diagrams.net" modified="2024-05-24T08:08:10.586Z" agent="Mozilla/5.0 (Windows NT 10.0; Win64; x64) AppleWebKit/537.36 (KHTML, like Gecko) Chrome/125.0.0.0 Safari/537.36 Edg/125.0.0.0" etag="lKjqvjqY0sSMgjxeaj4i" version="24.4.7" type="github">
  <diagram name="第 1 页" id="wIcfUDy7QgzICOt5dsJc">
    <mxGraphModel dx="546" dy="912" grid="1" gridSize="10" guides="1" tooltips="1" connect="1" arrows="1" fold="1" page="1" pageScale="1" pageWidth="827" pageHeight="1169" math="0" shadow="0">
      <root>
        <mxCell id="0" />
        <mxCell id="1" parent="0" />
        <mxCell id="XOL2sZb4QOFidJMZdLJ5-2" value="用户" style="shape=umlActor;verticalLabelPosition=bottom;verticalAlign=top;html=1;outlineConnect=0;fontSize=16;" vertex="1" parent="1">
          <mxGeometry x="120" y="110" width="30" height="60" as="geometry" />
        </mxCell>
        <mxCell id="XOL2sZb4QOFidJMZdLJ5-3" value="产品页面类UI" style="rounded=0;whiteSpace=wrap;html=1;fontSize=16;" vertex="1" parent="1">
          <mxGeometry x="260" y="120" width="120" height="60" as="geometry" />
        </mxCell>
        <mxCell id="XOL2sZb4QOFidJMZdLJ5-4" value="产品业务类BLL" style="rounded=0;whiteSpace=wrap;html=1;fontSize=16;" vertex="1" parent="1">
          <mxGeometry x="490" y="120" width="120" height="60" as="geometry" />
        </mxCell>
        <mxCell id="XOL2sZb4QOFidJMZdLJ5-5" value="数据访问类DAL" style="rounded=0;whiteSpace=wrap;html=1;fontSize=16;" vertex="1" parent="1">
          <mxGeometry x="720" y="120" width="120" height="60" as="geometry" />
        </mxCell>
        <mxCell id="XOL2sZb4QOFidJMZdLJ5-6" value="" style="endArrow=none;dashed=1;html=1;dashPattern=1 3;strokeWidth=2;rounded=0;" edge="1" parent="1">
          <mxGeometry width="50" height="50" relative="1" as="geometry">
            <mxPoint x="134.29" y="970" as="sourcePoint" />
            <mxPoint x="134.7" y="200" as="targetPoint" />
          </mxGeometry>
        </mxCell>
        <mxCell id="XOL2sZb4QOFidJMZdLJ5-7" value="" style="endArrow=none;dashed=1;html=1;dashPattern=1 3;strokeWidth=2;rounded=0;" edge="1" parent="1" source="XOL2sZb4QOFidJMZdLJ5-41">
          <mxGeometry width="50" height="50" relative="1" as="geometry">
            <mxPoint x="319" y="950" as="sourcePoint" />
            <mxPoint x="319.41" y="190" as="targetPoint" />
          </mxGeometry>
        </mxCell>
        <mxCell id="XOL2sZb4QOFidJMZdLJ5-8" value="" style="endArrow=none;dashed=1;html=1;dashPattern=1 3;strokeWidth=2;rounded=0;" edge="1" parent="1">
          <mxGeometry width="50" height="50" relative="1" as="geometry">
            <mxPoint x="550" y="960" as="sourcePoint" />
            <mxPoint x="549.41" y="190" as="targetPoint" />
          </mxGeometry>
        </mxCell>
        <mxCell id="XOL2sZb4QOFidJMZdLJ5-9" value="" style="endArrow=none;dashed=1;html=1;dashPattern=1 3;strokeWidth=2;rounded=0;" edge="1" parent="1">
          <mxGeometry width="50" height="50" relative="1" as="geometry">
            <mxPoint x="780" y="980" as="sourcePoint" />
            <mxPoint x="779.41" y="190" as="targetPoint" />
          </mxGeometry>
        </mxCell>
        <mxCell id="XOL2sZb4QOFidJMZdLJ5-10" value="" style="endArrow=classic;html=1;rounded=0;fontSize=16;" edge="1" parent="1">
          <mxGeometry width="50" height="50" relative="1" as="geometry">
            <mxPoint x="130" y="240" as="sourcePoint" />
            <mxPoint x="320" y="240" as="targetPoint" />
          </mxGeometry>
        </mxCell>
        <mxCell id="XOL2sZb4QOFidJMZdLJ5-11" value="1.找到修改的供应商，提交修改信息" style="edgeLabel;html=1;align=center;verticalAlign=middle;resizable=0;points=[];fontSize=16;" vertex="1" connectable="0" parent="XOL2sZb4QOFidJMZdLJ5-10">
          <mxGeometry x="0.018" y="-2" relative="1" as="geometry">
            <mxPoint as="offset" />
          </mxGeometry>
        </mxCell>
        <mxCell id="XOL2sZb4QOFidJMZdLJ5-12" value="" style="endArrow=classic;html=1;rounded=0;fontSize=16;" edge="1" parent="1">
          <mxGeometry width="50" height="50" relative="1" as="geometry">
            <mxPoint x="320" y="290" as="sourcePoint" />
            <mxPoint x="550" y="290" as="targetPoint" />
          </mxGeometry>
        </mxCell>
        <mxCell id="XOL2sZb4QOFidJMZdLJ5-13" value="2.检查供应商信息是否合法" style="edgeLabel;html=1;align=center;verticalAlign=middle;resizable=0;points=[];fontSize=16;" vertex="1" connectable="0" parent="XOL2sZb4QOFidJMZdLJ5-12">
          <mxGeometry x="0.4124" y="-4" relative="1" as="geometry">
            <mxPoint x="-43" y="-14" as="offset" />
          </mxGeometry>
        </mxCell>
        <mxCell id="XOL2sZb4QOFidJMZdLJ5-14" value="选择" style="shape=umlFrame;whiteSpace=wrap;html=1;pointerEvents=0;shadow=0;fontSize=16;" vertex="1" parent="1">
          <mxGeometry x="70" y="310" width="780" height="390" as="geometry" />
        </mxCell>
        <mxCell id="XOL2sZb4QOFidJMZdLJ5-15" value="" style="endArrow=none;dashed=1;html=1;rounded=0;entryX=0.999;entryY=0.326;entryDx=0;entryDy=0;entryPerimeter=0;exitX=0.001;exitY=0.342;exitDx=0;exitDy=0;exitPerimeter=0;fontSize=16;" edge="1" parent="1">
          <mxGeometry width="50" height="50" relative="1" as="geometry">
            <mxPoint x="71.55999999999997" y="395.28000000000003" as="sourcePoint" />
            <mxPoint x="850" y="390.00000000000006" as="targetPoint" />
          </mxGeometry>
        </mxCell>
        <mxCell id="XOL2sZb4QOFidJMZdLJ5-16" value="[供应商信息不合法]" style="text;html=1;align=center;verticalAlign=middle;resizable=0;points=[];autosize=1;strokeColor=none;fillColor=none;fontSize=16;" vertex="1" parent="1">
          <mxGeometry x="10" y="338" width="160" height="30" as="geometry" />
        </mxCell>
        <mxCell id="XOL2sZb4QOFidJMZdLJ5-17" value="[供应商信息合法]" style="text;html=1;align=center;verticalAlign=middle;resizable=0;points=[];autosize=1;strokeColor=none;fillColor=none;fontSize=16;" vertex="1" parent="1">
          <mxGeometry x="20" y="400" width="140" height="30" as="geometry" />
        </mxCell>
        <mxCell id="XOL2sZb4QOFidJMZdLJ5-18" value="3.提示错误信息" style="text;html=1;align=center;verticalAlign=middle;resizable=0;points=[];autosize=1;strokeColor=none;fillColor=none;fontSize=16;" vertex="1" parent="1">
          <mxGeometry x="370" y="338" width="130" height="30" as="geometry" />
        </mxCell>
        <mxCell id="XOL2sZb4QOFidJMZdLJ5-19" value="" style="endArrow=classic;html=1;rounded=0;fontSize=16;" edge="1" parent="1">
          <mxGeometry width="50" height="50" relative="1" as="geometry">
            <mxPoint x="550" y="410" as="sourcePoint" />
            <mxPoint x="780" y="410" as="targetPoint" />
            <Array as="points">
              <mxPoint x="650" y="410" />
            </Array>
          </mxGeometry>
        </mxCell>
        <mxCell id="XOL2sZb4QOFidJMZdLJ5-20" value="4.执行修改逻辑" style="edgeLabel;html=1;align=center;verticalAlign=middle;resizable=0;points=[];fontSize=16;" vertex="1" connectable="0" parent="XOL2sZb4QOFidJMZdLJ5-19">
          <mxGeometry x="0.4362" y="-3" relative="1" as="geometry">
            <mxPoint x="-65" y="-13" as="offset" />
          </mxGeometry>
        </mxCell>
        <mxCell id="XOL2sZb4QOFidJMZdLJ5-21" value="" style="endArrow=classic;html=1;rounded=0;fontSize=16;" edge="1" parent="1">
          <mxGeometry width="50" height="50" relative="1" as="geometry">
            <mxPoint x="550" y="360" as="sourcePoint" />
            <mxPoint x="320" y="360" as="targetPoint" />
          </mxGeometry>
        </mxCell>
        <mxCell id="XOL2sZb4QOFidJMZdLJ5-22" value="选择" style="shape=umlFrame;whiteSpace=wrap;html=1;pointerEvents=0;fontSize=16;" vertex="1" parent="1">
          <mxGeometry x="90" y="440" width="740" height="230" as="geometry" />
        </mxCell>
        <mxCell id="XOL2sZb4QOFidJMZdLJ5-23" value="" style="endArrow=none;dashed=1;html=1;rounded=0;entryX=0.999;entryY=0.326;entryDx=0;entryDy=0;entryPerimeter=0;exitX=0.001;exitY=0.342;exitDx=0;exitDy=0;exitPerimeter=0;fontSize=16;" edge="1" parent="1">
          <mxGeometry width="50" height="50" relative="1" as="geometry">
            <mxPoint x="91.48" y="525.2800000000001" as="sourcePoint" />
            <mxPoint x="830" y="519.9999999999999" as="targetPoint" />
          </mxGeometry>
        </mxCell>
        <mxCell id="XOL2sZb4QOFidJMZdLJ5-24" value="[执行失败]" style="text;html=1;align=center;verticalAlign=middle;resizable=0;points=[];autosize=1;strokeColor=none;fillColor=none;fontSize=16;" vertex="1" parent="1">
          <mxGeometry x="60" y="468" width="100" height="30" as="geometry" />
        </mxCell>
        <mxCell id="XOL2sZb4QOFidJMZdLJ5-25" value="[执行成功]" style="text;html=1;align=center;verticalAlign=middle;resizable=0;points=[];autosize=1;strokeColor=none;fillColor=none;fontSize=16;" vertex="1" parent="1">
          <mxGeometry x="65" y="530" width="100" height="30" as="geometry" />
        </mxCell>
        <mxCell id="XOL2sZb4QOFidJMZdLJ5-26" value="" style="endArrow=classic;html=1;rounded=0;fontSize=16;" edge="1" parent="1">
          <mxGeometry width="50" height="50" relative="1" as="geometry">
            <mxPoint x="550" y="489.9999999999999" as="sourcePoint" />
            <mxPoint x="320" y="489.9999999999999" as="targetPoint" />
          </mxGeometry>
        </mxCell>
        <mxCell id="XOL2sZb4QOFidJMZdLJ5-27" value="" style="endArrow=classic;html=1;rounded=0;dashed=1;dashPattern=8 8;fontSize=16;" edge="1" parent="1">
          <mxGeometry width="50" height="50" relative="1" as="geometry">
            <mxPoint x="780" y="469.9999999999999" as="sourcePoint" />
            <mxPoint x="550" y="469.9999999999999" as="targetPoint" />
          </mxGeometry>
        </mxCell>
        <mxCell id="XOL2sZb4QOFidJMZdLJ5-28" value="5.返回错误信息" style="edgeLabel;html=1;align=center;verticalAlign=middle;resizable=0;points=[];fontSize=16;" vertex="1" connectable="0" parent="XOL2sZb4QOFidJMZdLJ5-27">
          <mxGeometry x="0.2435" y="-1" relative="1" as="geometry">
            <mxPoint x="13" y="-19" as="offset" />
          </mxGeometry>
        </mxCell>
        <mxCell id="XOL2sZb4QOFidJMZdLJ5-29" value="6.提示错误信息" style="text;html=1;align=center;verticalAlign=middle;resizable=0;points=[];autosize=1;strokeColor=none;fillColor=none;fontSize=16;" vertex="1" parent="1">
          <mxGeometry x="325" y="468" width="130" height="30" as="geometry" />
        </mxCell>
        <mxCell id="XOL2sZb4QOFidJMZdLJ5-34" value="" style="endArrow=classic;html=1;rounded=0;dashed=1;dashPattern=8 8;fontSize=16;" edge="1" parent="1">
          <mxGeometry width="50" height="50" relative="1" as="geometry">
            <mxPoint x="780" y="599.9999999999999" as="sourcePoint" />
            <mxPoint x="550" y="599.9999999999999" as="targetPoint" />
          </mxGeometry>
        </mxCell>
        <mxCell id="XOL2sZb4QOFidJMZdLJ5-35" value="7.返回执行成功信息" style="edgeLabel;html=1;align=center;verticalAlign=middle;resizable=0;points=[];fontSize=16;" vertex="1" connectable="0" parent="XOL2sZb4QOFidJMZdLJ5-34">
          <mxGeometry x="0.5841" y="3" relative="1" as="geometry">
            <mxPoint x="63" y="-13" as="offset" />
          </mxGeometry>
        </mxCell>
        <mxCell id="XOL2sZb4QOFidJMZdLJ5-36" value="" style="endArrow=classic;html=1;rounded=0;fontSize=16;" edge="1" parent="1">
          <mxGeometry width="50" height="50" relative="1" as="geometry">
            <mxPoint x="550" y="629.9999999999999" as="sourcePoint" />
            <mxPoint x="320" y="629.9999999999999" as="targetPoint" />
          </mxGeometry>
        </mxCell>
        <mxCell id="XOL2sZb4QOFidJMZdLJ5-37" value="8.显示执行成功" style="edgeLabel;html=1;align=center;verticalAlign=middle;resizable=0;points=[];fontSize=16;" vertex="1" connectable="0" parent="XOL2sZb4QOFidJMZdLJ5-36">
          <mxGeometry x="0.5841" y="3" relative="1" as="geometry">
            <mxPoint x="63" y="-13" as="offset" />
          </mxGeometry>
        </mxCell>
        <mxCell id="XOL2sZb4QOFidJMZdLJ5-40" value="" style="endArrow=none;dashed=1;html=1;dashPattern=1 3;strokeWidth=2;rounded=0;" edge="1" parent="1" source="XOL2sZb4QOFidJMZdLJ5-49" target="XOL2sZb4QOFidJMZdLJ5-41">
          <mxGeometry width="50" height="50" relative="1" as="geometry">
            <mxPoint x="319" y="950" as="sourcePoint" />
            <mxPoint x="319.41" y="190" as="targetPoint" />
          </mxGeometry>
        </mxCell>
        <mxCell id="XOL2sZb4QOFidJMZdLJ5-41" value="" style="html=1;points=[[0,0,0,0,5],[0,1,0,0,-5],[1,0,0,0,5],[1,1,0,0,-5]];perimeter=orthogonalPerimeter;outlineConnect=0;targetShapes=umlLifeline;portConstraint=eastwest;newEdgeStyle={&quot;curved&quot;:0,&quot;rounded&quot;:0};" vertex="1" parent="1">
          <mxGeometry x="315" y="240" width="10" height="50" as="geometry" />
        </mxCell>
        <mxCell id="XOL2sZb4QOFidJMZdLJ5-42" value="" style="html=1;points=[[0,0,0,0,5],[0,1,0,0,-5],[1,0,0,0,5],[1,1,0,0,-5]];perimeter=orthogonalPerimeter;outlineConnect=0;targetShapes=umlLifeline;portConstraint=eastwest;newEdgeStyle={&quot;curved&quot;:0,&quot;rounded&quot;:0};" vertex="1" parent="1">
          <mxGeometry x="545" y="290" width="10" height="70" as="geometry" />
        </mxCell>
        <mxCell id="XOL2sZb4QOFidJMZdLJ5-43" value="" style="html=1;points=[[0,0,0,0,5],[0,1,0,0,-5],[1,0,0,0,5],[1,1,0,0,-5]];perimeter=orthogonalPerimeter;outlineConnect=0;targetShapes=umlLifeline;portConstraint=eastwest;newEdgeStyle={&quot;curved&quot;:0,&quot;rounded&quot;:0};" vertex="1" parent="1">
          <mxGeometry x="775" y="410" width="10" height="60" as="geometry" />
        </mxCell>
        <mxCell id="XOL2sZb4QOFidJMZdLJ5-44" value="" style="html=1;points=[[0,0,0,0,5],[0,1,0,0,-5],[1,0,0,0,5],[1,1,0,0,-5]];perimeter=orthogonalPerimeter;outlineConnect=0;targetShapes=umlLifeline;portConstraint=eastwest;newEdgeStyle={&quot;curved&quot;:0,&quot;rounded&quot;:0};" vertex="1" parent="1">
          <mxGeometry x="545" y="472" width="10" height="18" as="geometry" />
        </mxCell>
        <mxCell id="XOL2sZb4QOFidJMZdLJ5-46" value="" style="html=1;points=[[0,0,0,0,5],[0,1,0,0,-5],[1,0,0,0,5],[1,1,0,0,-5]];perimeter=orthogonalPerimeter;outlineConnect=0;targetShapes=umlLifeline;portConstraint=eastwest;newEdgeStyle={&quot;curved&quot;:0,&quot;rounded&quot;:0};" vertex="1" parent="1">
          <mxGeometry x="775" y="550" width="10" height="50" as="geometry" />
        </mxCell>
        <mxCell id="XOL2sZb4QOFidJMZdLJ5-47" value="" style="html=1;points=[[0,0,0,0,5],[0,1,0,0,-5],[1,0,0,0,5],[1,1,0,0,-5]];perimeter=orthogonalPerimeter;outlineConnect=0;targetShapes=umlLifeline;portConstraint=eastwest;newEdgeStyle={&quot;curved&quot;:0,&quot;rounded&quot;:0};" vertex="1" parent="1">
          <mxGeometry x="545" y="600" width="10" height="30" as="geometry" />
        </mxCell>
        <mxCell id="XOL2sZb4QOFidJMZdLJ5-48" value="" style="endArrow=none;dashed=1;html=1;dashPattern=1 3;strokeWidth=2;rounded=0;" edge="1" parent="1" target="XOL2sZb4QOFidJMZdLJ5-49">
          <mxGeometry width="50" height="50" relative="1" as="geometry">
            <mxPoint x="319" y="950" as="sourcePoint" />
            <mxPoint x="319" y="290" as="targetPoint" />
          </mxGeometry>
        </mxCell>
        <mxCell id="XOL2sZb4QOFidJMZdLJ5-49" value="" style="html=1;points=[[0,0,0,0,5],[0,1,0,0,-5],[1,0,0,0,5],[1,1,0,0,-5]];perimeter=orthogonalPerimeter;outlineConnect=0;targetShapes=umlLifeline;portConstraint=eastwest;newEdgeStyle={&quot;curved&quot;:0,&quot;rounded&quot;:0};" vertex="1" parent="1">
          <mxGeometry x="315" y="630" width="10" height="30" as="geometry" />
        </mxCell>
      </root>
    </mxGraphModel>
  </diagram>
</mxfile>
